<svg xmlns="http://www.w3.org/2000/svg" width="1240" height="1900" viewBox="0 0 1240 1900"><style>text{font-family:"Noto Sans TC","Microsoft JhengHei",sans-serif;fill:#24384f}.t{font-size:42px;font-weight:800;fill:#fff}.s{font-size:18px;fill:#c7d4e5}.h{font-size:25px;font-weight:800}.l{font-size:16px;font-weight:700;fill:#68778a}.v{font-size:24px;font-weight:800}.th{font-size:15px;font-weight:700;fill:#5b697c}.r{font-size:15px}.b{font-weight:700}.bull{fill:#a34c1f}.bear{fill:#245b88}</style><rect width="1240" height="1900" fill="#f4f6f9"/><rect x="34" y="28" width="1172" height="150" rx="26" fill="#10243e"/><text class="t" x="72" y="88">台股權證每日篩選 Heartbeat</text><text class="s" x="72" y="130">研究用途｜不構成投資建議｜最近官方最後收盤價</text><text class="l" x="1168" y="84" text-anchor="end" fill="#8fa7c4">WARRANTS RESEARCH</text><text class="s" x="1168" y="124" text-anchor="end" fill="#fff">2026-09-15</text><rect x="34" y="202" width="273" height="104" rx="17" fill="#fff" stroke="#d7dfe8"/><text class="l" x="52" y="236">最近完整交易日</text><text class="v" x="52" y="276" fill="#10243e">2026-09-14</text><rect x="327" y="202" width="273" height="104" rx="17" fill="#fff" stroke="#d7dfe8"/><text class="l" x="345" y="236">市場狀態</text><text class="v" x="345" y="276" fill="#b45e1c">交易日盤前</text><rect x="620" y="202" width="273" height="104" rx="17" fill="#fff" stroke="#d7dfe8"/><text class="l" x="638" y="236">全市場認證</text><text class="v" x="638" y="276" fill="#19704a">是</text><rect x="913" y="202" width="273" height="104" rx="17" fill="#fff" stroke="#d7dfe8"/><text class="l" x="931" y="236">純權證母體</text><text class="v" x="931" y="276" fill="#10243e">44,334</text><text class="l" x="34" y="338">TWSE 34,058｜TPEx 10,276｜Top100：TWSE 79｜TPEx 21｜認購 92｜認售 8</text><rect x="34" y="366" width="1172" height="142" rx="20" fill="#fff" stroke="#d7dfe8"/><text class="h" x="60" y="404">篩選漏斗</text><rect x="60" y="422" width="240" height="62" rx="12" fill="#f7f9fc" stroke="#e1e6ee"/><text class="l" x="75" y="447">純權證 Top100</text><text class="h" x="75" y="474" fill="#173b60">100</text><rect x="338" y="422" width="240" height="62" rx="12" fill="#f7f9fc" stroke="#e1e6ee"/><text class="l" x="353" y="447">收盤價 ≤ 1.5</text><text class="h" x="353" y="474" fill="#173b60">89</text><rect x="616" y="422" width="240" height="62" rx="12" fill="#f7f9fc" stroke="#e1e6ee"/><text class="l" x="631" y="447">期限 &gt; 180 天</text><text class="h" x="631" y="474" fill="#173b60">28</text><rect x="894" y="422" width="240" height="62" rx="12" fill="#f7f9fc" stroke="#e1e6ee"/><text class="l" x="909" y="447">正式候選</text><text class="h" x="909" y="474" fill="#173b60">認購 26｜認售 2</text><text class="l" x="60" y="500">成交量範圍：14,130～2,417 張｜價格缺失 0｜價格 &gt;1.5 元 11｜期限 ≤180 天 61</text><rect x="34" y="536" width="1172" height="1050" rx="21" fill="#fff" stroke="#e9d6c7"/><rect x="34" y="536" width="1172" height="62" rx="21" fill="#fff1e7" stroke="#e9d6c7"/><text class="h bull" x="60" y="577">看多認購｜正式候選前 25 檔</text><text class="l bull" x="1170" y="576" text-anchor="end">正式認購共 26 檔</text><text class="th" x="58" y="626" text-anchor="start">排名</text><text class="th" x="130" y="626" text-anchor="start">代號</text><text class="th" x="244" y="626" text-anchor="start">名稱</text><text class="th" x="620" y="626" text-anchor="end">收盤價</text><text class="th" x="760" y="626" text-anchor="end">剩餘天數</text><text class="th" x="900" y="626" text-anchor="end">成交量(張)</text><text class="r b" x="58" y="664">2</text><text class="r b" x="130" y="664" fill="#173b60">061946</text><text class="r b" x="244" y="664">台達電中信63購03</text><text class="r b" x="620" y="664" text-anchor="end">0.37</text><text class="r b" x="760" y="664" text-anchor="end">197</text><text class="r b" x="900" y="664" text-anchor="end">12,414</text><rect x="50" y="677" width="1128" height="36" rx="7" fill="#fafbfd"/><text class="r b" x="58" y="700">16</text><text class="r b" x="130" y="700" fill="#173b60">066186</text><text class="r b" x="244" y="700">聯發科元大64購06</text><text class="r b" x="620" y="700" text-anchor="end">1.42</text><text class="r b" x="760" y="700" text-anchor="end">204</text><text class="r b" x="900" y="700" text-anchor="end">4,905</text><text class="r b" x="58" y="736">18</text><text class="r b" x="130" y="736" fill="#173b60">080429</text><text class="r b" x="244" y="736">友達群益63購05</text><text class="r b" x="620" y="736" text-anchor="end">1.31</text><text class="r b" x="760" y="736" text-anchor="end">181</text><text class="r b" x="900" y="736" text-anchor="end">4,593</text><rect x="50" y="749" width="1128" height="36" rx="7" fill="#fafbfd"/><text class="r b" x="58" y="772">22</text><text class="r b" x="130" y="772" fill="#173b60">714112</text><text class="r b" x="244" y="772">光頡統一79購01</text><text class="r b" x="620" y="772" text-anchor="end">0.88</text><text class="r b" x="760" y="772" text-anchor="end">727</text><text class="r b" x="900" y="772" text-anchor="end">4,386</text><text class="r b" x="58" y="808">28</text><text class="r b" x="130" y="808" fill="#173b60">083649</text><text class="r b" x="244" y="808">玉晶光統一71購01</text><text class="r b" x="620" y="808" text-anchor="end">0.61</text><text class="r b" x="760" y="808" text-anchor="end">475</text><text class="r b" x="900" y="808" text-anchor="end">4,274</text><rect x="50" y="821" width="1128" height="36" rx="7" fill="#fafbfd"/><text class="r b" x="58" y="844">32</text><text class="r b" x="130" y="844" fill="#173b60">732332</text><text class="r b" x="244" y="844">M31統一63購02</text><text class="r b" x="620" y="844" text-anchor="end">0.16</text><text class="r b" x="760" y="844" text-anchor="end">195</text><text class="r b" x="900" y="844" text-anchor="end">4,002</text><text class="r b" x="58" y="880">36</text><text class="r b" x="130" y="880" fill="#173b60">712550</text><text class="r b" x="244" y="880">順達元大64購07</text><text class="r b" x="620" y="880" text-anchor="end">1.10</text><text class="r b" x="760" y="880" text-anchor="end">209</text><text class="r b" x="900" y="880" text-anchor="end">3,730</text><rect x="50" y="893" width="1128" height="36" rx="7" fill="#fafbfd"/><text class="r b" x="58" y="916">38</text><text class="r b" x="130" y="916" fill="#173b60">04020C</text><text class="r b" x="244" y="916">元債2X富邦65牛01</text><text class="r b" x="620" y="916" text-anchor="end">0.81</text><text class="r b" x="760" y="916" text-anchor="end">247</text><text class="r b" x="900" y="916" text-anchor="end">3,684</text><text class="r b" x="58" y="952">40</text><text class="r b" x="130" y="952" fill="#173b60">084096</text><text class="r b" x="244" y="952">玉晶光中信67購01</text><text class="r b" x="620" y="952" text-anchor="end">1.18</text><text class="r b" x="760" y="952" text-anchor="end">290</text><text class="r b" x="900" y="952" text-anchor="end">3,635</text><rect x="50" y="965" width="1128" height="36" rx="7" fill="#fafbfd"/><text class="r b" x="58" y="988">48</text><text class="r b" x="130" y="988" fill="#173b60">071559</text><text class="r b" x="244" y="988">強茂統一63購03</text><text class="r b" x="620" y="988" text-anchor="end">0.79</text><text class="r b" x="760" y="988" text-anchor="end">181</text><text class="r b" x="900" y="988" text-anchor="end">3,443</text><text class="r b" x="58" y="1024">51</text><text class="r b" x="130" y="1024" fill="#173b60">081111</text><text class="r b" x="244" y="1024">大立光富邦65購04</text><text class="r b" x="620" y="1024" text-anchor="end">1.27</text><text class="r b" x="760" y="1024" text-anchor="end">245</text><text class="r b" x="900" y="1024" text-anchor="end">3,395</text><rect x="50" y="1037" width="1128" height="36" rx="7" fill="#fafbfd"/><text class="r b" x="58" y="1060">56</text><text class="r b" x="130" y="1060" fill="#173b60">079017</text><text class="r b" x="244" y="1060">嘉晶統一6B購01</text><text class="r b" x="620" y="1060" text-anchor="end">0.71</text><text class="r b" x="760" y="1060" text-anchor="end">416</text><text class="r b" x="900" y="1060" text-anchor="end">3,269</text><text class="r b" x="58" y="1096">61</text><text class="r b" x="130" y="1096" fill="#173b60">083346</text><text class="r b" x="244" y="1096">大立光中信65購01</text><text class="r b" x="620" y="1096" text-anchor="end">0.79</text><text class="r b" x="760" y="1096" text-anchor="end">258</text><text class="r b" x="900" y="1096" text-anchor="end">3,130</text><rect x="50" y="1109" width="1128" height="36" rx="7" fill="#fafbfd"/><text class="r b" x="58" y="1132">62</text><text class="r b" x="130" y="1132" fill="#173b60">082193</text><text class="r b" x="244" y="1132">台積電群益68購04</text><text class="r b" x="620" y="1132" text-anchor="end">1.16</text><text class="r b" x="760" y="1132" text-anchor="end">343</text><text class="r b" x="900" y="1132" text-anchor="end">3,118</text><text class="r b" x="58" y="1168">64</text><text class="r b" x="130" y="1168" fill="#173b60">084029</text><text class="r b" x="244" y="1168">玉晶光元大66購03</text><text class="r b" x="620" y="1168" text-anchor="end">0.69</text><text class="r b" x="760" y="1168" text-anchor="end">260</text><text class="r b" x="900" y="1168" text-anchor="end">3,066</text><rect x="50" y="1181" width="1128" height="36" rx="7" fill="#fafbfd"/><text class="r b" x="58" y="1204">65</text><text class="r b" x="130" y="1204" fill="#173b60">082335</text><text class="r b" x="244" y="1204">臺指反元大65購02</text><text class="r b" x="620" y="1204" text-anchor="end">0.47</text><text class="r b" x="760" y="1204" text-anchor="end">252</text><text class="r b" x="900" y="1204" text-anchor="end">3,044</text><text class="r b" x="58" y="1240">69</text><text class="r b" x="130" y="1240" fill="#173b60">082334</text><text class="r b" x="244" y="1240">臺指反元大64購02</text><text class="r b" x="620" y="1240" text-anchor="end">0.55</text><text class="r b" x="760" y="1240" text-anchor="end">223</text><text class="r b" x="900" y="1240" text-anchor="end">2,994</text><rect x="50" y="1253" width="1128" height="36" rx="7" fill="#fafbfd"/><text class="r b" x="58" y="1276">72</text><text class="r b" x="130" y="1276" fill="#173b60">083480</text><text class="r b" x="244" y="1276">大立光永豐65購03</text><text class="r b" x="620" y="1276" text-anchor="end">0.73</text><text class="r b" x="760" y="1276" text-anchor="end">230</text><text class="r b" x="900" y="1276" text-anchor="end">2,957</text><text class="r b" x="58" y="1312">74</text><text class="r b" x="130" y="1312" fill="#173b60">708913</text><text class="r b" x="244" y="1312">光頡統一65購01</text><text class="r b" x="620" y="1312" text-anchor="end">1.31</text><text class="r b" x="760" y="1312" text-anchor="end">247</text><text class="r b" x="900" y="1312" text-anchor="end">2,864</text><rect x="50" y="1325" width="1128" height="36" rx="7" fill="#fafbfd"/><text class="r b" x="58" y="1348">76</text><text class="r b" x="130" y="1348" fill="#173b60">071548</text><text class="r b" x="244" y="1348">南亞科統一64購03</text><text class="r b" x="620" y="1348" text-anchor="end">0.78</text><text class="r b" x="760" y="1348" text-anchor="end">212</text><text class="r b" x="900" y="1348" text-anchor="end">2,782</text><text class="r b" x="58" y="1384">79</text><text class="r b" x="130" y="1384" fill="#173b60">067411</text><text class="r b" x="244" y="1384">國巨中信65購01</text><text class="r b" x="620" y="1384" text-anchor="end">0.56</text><text class="r b" x="760" y="1384" text-anchor="end">245</text><text class="r b" x="900" y="1384" text-anchor="end">2,754</text><rect x="50" y="1397" width="1128" height="36" rx="7" fill="#fafbfd"/><text class="r b" x="58" y="1420">83</text><text class="r b" x="130" y="1420" fill="#173b60">711122</text><text class="r b" x="244" y="1420">精材統一65購02</text><text class="r b" x="620" y="1420" text-anchor="end">1.07</text><text class="r b" x="760" y="1420" text-anchor="end">239</text><text class="r b" x="900" y="1420" text-anchor="end">2,629</text><text class="r b" x="58" y="1456">92</text><text class="r b" x="130" y="1456" fill="#173b60">079014</text><text class="r b" x="244" y="1456">大毅統一6B購01</text><text class="r b" x="620" y="1456" text-anchor="end">0.60</text><text class="r b" x="760" y="1456" text-anchor="end">416</text><text class="r b" x="900" y="1456" text-anchor="end">2,495</text><rect x="50" y="1469" width="1128" height="36" rx="7" fill="#fafbfd"/><text class="r b" x="58" y="1492">95</text><text class="r b" x="130" y="1492" fill="#173b60">705858</text><text class="r b" x="244" y="1492">良維統一73購01</text><text class="r b" x="620" y="1492" text-anchor="end">0.47</text><text class="r b" x="760" y="1492" text-anchor="end">541</text><text class="r b" x="900" y="1492" text-anchor="end">2,453</text><text class="r b" x="58" y="1528">97</text><text class="r b" x="130" y="1528" fill="#173b60">083013</text><text class="r b" x="244" y="1528">宏致元大67購02</text><text class="r b" x="620" y="1528" text-anchor="end">0.91</text><text class="r b" x="760" y="1528" text-anchor="end">315</text><text class="r b" x="900" y="1528" text-anchor="end">2,450</text><rect x="34" y="1614" width="1172" height="166" rx="21" fill="#fff" stroke="#c8d8ea"/><rect x="34" y="1614" width="1172" height="56" rx="21" fill="#eef5fc" stroke="#c8d8ea"/><text class="h bear" x="60" y="1652">看空認售｜正式候選 2 檔</text><text class="th" x="58" y="1698" text-anchor="start">排名</text><text class="th" x="130" y="1698" text-anchor="start">代號</text><text class="th" x="244" y="1698" text-anchor="start">名稱</text><text class="th" x="620" y="1698" text-anchor="end">收盤價</text><text class="th" x="760" y="1698" text-anchor="end">剩餘天數</text><text class="th" x="900" y="1698" text-anchor="end">成交量(張)</text><text class="r b" x="58" y="1736">8</text><text class="r b" x="130" y="1736" fill="#173b60">03733B</text><text class="r b" x="244" y="1736">臺股指凱基65熊07</text><text class="r b" x="620" y="1736" text-anchor="end">1.08</text><text class="r b" x="760" y="1736" text-anchor="end">254</text><text class="r b" x="900" y="1736" text-anchor="end">5,583</text><text class="r b" x="58" y="1772">52</text><text class="r b" x="130" y="1772" fill="#173b60">72843U</text><text class="r b" x="244" y="1772">精材群益63售01</text><text class="r b" x="620" y="1772" text-anchor="end">0.07</text><text class="r b" x="760" y="1772" text-anchor="end">197</text><text class="r b" x="900" y="1772" text-anchor="end">3,395</text><rect x="34" y="1810" width="1172" height="66" rx="17" fill="#fff" stroke="#d7dfe8"/><text class="r" x="58" y="1839">成交量只使用權證本身；價格為 2026-09-14 官方最後收盤價；08:00 疑似券商介入：無法判斷。</text><text class="r b" x="1170" y="1862" text-anchor="end" fill="#8a98aa">TWSE + TPEx CERTIFIED</text></svg>