<svg xmlns="http://www.w3.org/2000/svg" width="1240" height="2050" viewBox="0 0 1240 2050">
<style>
text{font-family:"Noto Sans TC","Microsoft JhengHei","PingFang TC",sans-serif;fill:#26394f}
.t{font-size:43px;font-weight:800;fill:#fff}.s{font-size:18px;font-weight:600}.h{font-size:25px;font-weight:800}
.l{font-size:16px;font-weight:700;fill:#68778a}.v{font-size:25px;font-weight:800}.th{font-size:16px;font-weight:700;fill:#5b697c}
.r{font-size:15px}.b{font-weight:700}.m{fill:#6c7889}.bl{fill:#173b60}.bu{fill:#a34c1f}.be{fill:#245b88}
</style>
<rect width="1240" height="2050" fill="#f4f6f9"/>
<rect x="34" y="28" width="1172" height="154" rx="26" fill="#10243e"/>
<text class="t" x="72" y="90">台股權證每日篩選 Heartbeat</text>
<text class="s" x="72" y="133" fill="#c9d5e5">研究用途｜不構成投資建議｜價格皆為最近官方最後收盤價</text>
<text class="l" x="1168" y="84" text-anchor="end" fill="#8fa7c4">WARRANTS RESEARCH</text>
<text class="s" x="1168" y="124" text-anchor="end" fill="#fff">2026-09-14</text>
<rect x="34" y="205" width="1172" height="104" rx="20" fill="#fff4e5" stroke="#e7b96f"/>
<text class="h" x="62" y="244" fill="#8f4e08">本次無法完成全市場純權證 Top100 認證</text>
<text class="s" x="62" y="280" fill="#80551d">TPEx 官方權證端點資料接收失敗；以下僅列 TWSE 可驗證排名與條件符合清單，不冒充全市場排名。</text>
<rect x="34" y="334" width="273" height="104" rx="17" fill="#fff" stroke="#d7dfe8"/>
<text class="l" x="52" y="368">執行日期</text><text class="v" x="52" y="408" fill="#10243e">2026-09-14</text>
<rect x="327" y="334" width="273" height="104" rx="17" fill="#fff" stroke="#d7dfe8"/>
<text class="l" x="345" y="368">最近完整交易日</text><text class="v" x="345" y="408" fill="#10243e">2026-09-11</text>
<rect x="620" y="334" width="273" height="104" rx="17" fill="#fff" stroke="#d7dfe8"/>
<text class="l" x="638" y="368">市場狀態</text><text class="v" x="638" y="408" fill="#b45e1c">交易日盤前</text>
<rect x="913" y="334" width="273" height="104" rx="17" fill="#fff" stroke="#d7dfe8"/>
<text class="l" x="931" y="368">全市場認證</text><text class="v" x="931" y="408" fill="#a43535">否</text>
<text class="s" x="34" y="470" fill="#53647a">可驗證母體：TWSE 純權證 34,032 檔｜TPEx 0（來源失敗，未納入）</text>
<rect x="34" y="498" width="1172" height="150" rx="20" fill="#fff" stroke="#d7dfe8"/>
<text class="h" x="60" y="537">TWSE 可驗證篩選漏斗</text>
<rect x="60" y="554" width="240" height="68" rx="13" fill="#f7f9fc" stroke="#e1e6ee"/>
<text class="l" x="76" y="580">TWSE 純權證 Top100</text><text class="h bl" x="76" y="608">100</text>
<text class="h" x="310" y="602" fill="#9aa8ba">→</text>
<rect x="338" y="554" width="240" height="68" rx="13" fill="#f7f9fc" stroke="#e1e6ee"/>
<text class="l" x="354" y="580">收盤價 ≤ 1.5</text><text class="h bl" x="354" y="608">88</text>
<text class="h" x="588" y="602" fill="#9aa8ba">→</text>
<rect x="616" y="554" width="240" height="68" rx="13" fill="#f7f9fc" stroke="#e1e6ee"/>
<text class="l" x="632" y="580">剩餘期限 &gt; 180 天</text><text class="h bl" x="632" y="608">25</text>
<text class="h" x="866" y="602" fill="#9aa8ba">→</text>
<rect x="894" y="554" width="240" height="68" rx="13" fill="#f7f9fc" stroke="#e1e6ee"/>
<text class="l" x="910" y="580">條件符合</text><text class="h bl" x="910" y="608">認購 24｜認售 1</text>
<text class="l" x="60" y="640">Top100 結構：認購 88｜認售 12　成交量範圍：14,834～2,147 張</text>
<rect x="34" y="680" width="1172" height="1080" rx="21" fill="#fff" stroke="#e9d6c7"/>
<rect x="34" y="680" width="1172" height="66" rx="21" fill="#fff1e7" stroke="#e9d6c7"/>
<text class="h bu" x="60" y="723">TWSE 可驗證認購條件符合｜24 檔</text><text class="l bu" x="1170" y="722" text-anchor="end">非全市場正式候選</text>
<text class="th" x="58" y="778">排名</text><text class="th" x="136" y="778">代號</text><text class="th" x="252" y="778">名稱</text><text class="th" x="548" y="778">券商</text><text class="th" x="660" y="778" text-anchor="end">收盤價</text><text class="th" x="784" y="778" text-anchor="end">剩餘天數</text><text class="th" x="914" y="778" text-anchor="end">成交量(張)</text><text class="th" x="1065" y="778" text-anchor="end">成交金額</text>
<line x1="56" y1="792" x2="1174" y2="792" stroke="#d9e1ea"/>
<text class="r b" x="58" y="824">10</text><text class="r b bl" x="136" y="824">083649</text><text class="r b" x="252" y="824">玉晶光統一71購01</text><text class="r m" x="548" y="824">統一</text><text class="r b" x="660" y="824" text-anchor="end">0.69</text><text class="r b" x="784" y="824" text-anchor="end">476</text><text class="r b" x="914" y="824" text-anchor="end">5,574</text><text class="r" x="1065" y="824" text-anchor="end">3,950,740</text>
<rect x="50" y="838" width="1128" height="40" rx="7" fill="#fafbfd"/><text class="r b" x="58" y="864">11</text><text class="r b bl" x="136" y="864">067411</text><text class="r b" x="252" y="864">國巨中信65購01</text><text class="r m" x="548" y="864">中信</text><text class="r b" x="660" y="864" text-anchor="end">0.56</text><text class="r b" x="784" y="864" text-anchor="end">246</text><text class="r b" x="914" y="864" text-anchor="end">5,104</text><text class="r" x="1065" y="864" text-anchor="end">2,964,560</text>
<text class="r b" x="58" y="904">12</text><text class="r b bl" x="136" y="904">04020C</text><text class="r b" x="252" y="904">元債2X富邦65牛01</text><text class="r m" x="548" y="904">富邦</text><text class="r b" x="660" y="904" text-anchor="end">0.81</text><text class="r b" x="784" y="904" text-anchor="end">248</text><text class="r b" x="914" y="904" text-anchor="end">4,825</text><text class="r" x="1065" y="904" text-anchor="end">3,763,100</text>
<rect x="50" y="918" width="1128" height="40" rx="7" fill="#fafbfd"/><text class="r b" x="58" y="944">18</text><text class="r b bl" x="136" y="944">077819</text><text class="r b" x="252" y="944">愛普統一6C購01</text><text class="r m" x="548" y="944">統一</text><text class="r b" x="660" y="944" text-anchor="end">0.58</text><text class="r b" x="784" y="944" text-anchor="end">470</text><text class="r b" x="914" y="944" text-anchor="end">4,552</text><text class="r" x="1065" y="944" text-anchor="end">2,670,780</text>
<text class="r b" x="58" y="984">21</text><text class="r b bl" x="136" y="984">066186</text><text class="r b" x="252" y="984">聯發科元大64購06</text><text class="r m" x="548" y="984">元大</text><text class="r b" x="660" y="984" text-anchor="end">1.45</text><text class="r b" x="784" y="984" text-anchor="end">205</text><text class="r b" x="914" y="984" text-anchor="end">4,275</text><text class="r" x="1065" y="984" text-anchor="end">6,203,890</text>
<rect x="50" y="998" width="1128" height="40" rx="7" fill="#fafbfd"/><text class="r b" x="58" y="1024">28</text><text class="r b bl" x="136" y="1024">082193</text><text class="r b" x="252" y="1024">台積電群益68購04</text><text class="r m" x="548" y="1024">群益</text><text class="r b" x="660" y="1024" text-anchor="end">1.23</text><text class="r b" x="784" y="1024" text-anchor="end">344</text><text class="r b" x="914" y="1024" text-anchor="end">3,701</text><text class="r" x="1065" y="1024" text-anchor="end">4,502,510</text>
<text class="r b" x="58" y="1064">30</text><text class="r b bl" x="136" y="1064">060819</text><text class="r b" x="252" y="1064">元油反群益63購03</text><text class="r m" x="548" y="1064">群益</text><text class="r b" x="660" y="1064" text-anchor="end">0.17</text><text class="r b" x="784" y="1064" text-anchor="end">189</text><text class="r b" x="914" y="1064" text-anchor="end">3,635</text><text class="r" x="1065" y="1064" text-anchor="end">650,670</text>
<rect x="50" y="1078" width="1128" height="40" rx="7" fill="#fafbfd"/><text class="r b" x="58" y="1104">36</text><text class="r b bl" x="136" y="1104">071950</text><text class="r b" x="252" y="1104">玉晶光統一66購02</text><text class="r m" x="548" y="1104">統一</text><text class="r b" x="660" y="1104" text-anchor="end">1.43</text><text class="r b" x="784" y="1104" text-anchor="end">276</text><text class="r b" x="914" y="1104" text-anchor="end">3,416</text><text class="r" x="1065" y="1104" text-anchor="end">4,899,870</text>
<text class="r b" x="58" y="1144">39</text><text class="r b bl" x="136" y="1144">059761</text><text class="r b" x="252" y="1144">世芯群益63購01</text><text class="r m" x="548" y="1144">群益</text><text class="r b" x="660" y="1144" text-anchor="end">0.95</text><text class="r b" x="784" y="1144" text-anchor="end">182</text><text class="r b" x="914" y="1144" text-anchor="end">3,270</text><text class="r" x="1065" y="1144" text-anchor="end">3,298,970</text>
<rect x="50" y="1158" width="1128" height="40" rx="7" fill="#fafbfd"/><text class="r b" x="58" y="1184">46</text><text class="r b bl" x="136" y="1184">061945</text><text class="r b" x="252" y="1184">台達電中信63購02</text><text class="r m" x="548" y="1184">中信</text><text class="r b" x="660" y="1184" text-anchor="end">0.32</text><text class="r b" x="784" y="1184" text-anchor="end">198</text><text class="r b" x="914" y="1184" text-anchor="end">3,101</text><text class="r" x="1065" y="1184" text-anchor="end">960,640</text>
<text class="r b" x="58" y="1224">47</text><text class="r b bl" x="136" y="1224">081315</text><text class="r b" x="252" y="1224">大立光富邦65購05</text><text class="r m" x="548" y="1224">富邦</text><text class="r b" x="660" y="1224" text-anchor="end">1.27</text><text class="r b" x="784" y="1224" text-anchor="end">247</text><text class="r b" x="914" y="1224" text-anchor="end">3,051</text><text class="r" x="1065" y="1224" text-anchor="end">3,998,420</text>
<rect x="50" y="1238" width="1128" height="40" rx="7" fill="#fafbfd"/><text class="r b" x="58" y="1264">50</text><text class="r b bl" x="136" y="1264">061946</text><text class="r b" x="252" y="1264">台達電中信63購03</text><text class="r m" x="548" y="1264">中信</text><text class="r b" x="660" y="1264" text-anchor="end">0.37</text><text class="r b" x="784" y="1264" text-anchor="end">198</text><text class="r b" x="914" y="1264" text-anchor="end">2,949</text><text class="r" x="1065" y="1264" text-anchor="end">1,092,780</text>
<text class="r b" x="58" y="1304">51</text><text class="r b bl" x="136" y="1304">065948</text><text class="r b" x="252" y="1304">世芯元大64購06</text><text class="r m" x="548" y="1304">元大</text><text class="r b" x="660" y="1304" text-anchor="end">0.80</text><text class="r b" x="784" y="1304" text-anchor="end">205</text><text class="r b" x="914" y="1304" text-anchor="end">2,948</text><text class="r" x="1065" y="1304" text-anchor="end">2,517,060</text>
<rect x="50" y="1318" width="1128" height="40" rx="7" fill="#fafbfd"/><text class="r b" x="58" y="1344">56</text><text class="r b bl" x="136" y="1344">085218</text><text class="r b" x="252" y="1344">天二統一6B購01</text><text class="r m" x="548" y="1344">統一</text><text class="r b" x="660" y="1344" text-anchor="end">0.70</text><text class="r b" x="784" y="1344" text-anchor="end">420</text><text class="r b" x="914" y="1344" text-anchor="end">2,741</text><text class="r" x="1065" y="1344" text-anchor="end">1,850,180</text>
<text class="r b" x="58" y="1384">58</text><text class="r b bl" x="136" y="1384">084029</text><text class="r b" x="252" y="1384">玉晶光元大66購03</text><text class="r m" x="548" y="1384">元大</text><text class="r b" x="660" y="1384" text-anchor="end">0.86</text><text class="r b" x="784" y="1384" text-anchor="end">261</text><text class="r b" x="914" y="1384" text-anchor="end">2,714</text><text class="r" x="1065" y="1384" text-anchor="end">2,405,430</text>
<rect x="50" y="1398" width="1128" height="40" rx="7" fill="#fafbfd"/><text class="r b" x="58" y="1424">67</text><text class="r b bl" x="136" y="1424">084031</text><text class="r b" x="252" y="1424">玉晶光元大68購01</text><text class="r m" x="548" y="1424">元大</text><text class="r b" x="660" y="1424" text-anchor="end">0.93</text><text class="r b" x="784" y="1424" text-anchor="end">322</text><text class="r b" x="914" y="1424" text-anchor="end">2,483</text><text class="r" x="1065" y="1424" text-anchor="end">2,313,040</text>
<text class="r b" x="58" y="1464">69</text><text class="r b bl" x="136" y="1464">073497</text><text class="r b" x="252" y="1464">玉晶光富邦63購03</text><text class="r m" x="548" y="1464">富邦</text><text class="r b" x="660" y="1464" text-anchor="end">1.03</text><text class="r b" x="784" y="1464" text-anchor="end">198</text><text class="r b" x="914" y="1464" text-anchor="end">2,475</text><text class="r" x="1065" y="1464" text-anchor="end">2,618,730</text>
<rect x="50" y="1478" width="1128" height="40" rx="7" fill="#fafbfd"/><text class="r b" x="58" y="1504">72</text><text class="r b bl" x="136" y="1504">063406</text><text class="r b" x="252" y="1504">台達電元大64購04</text><text class="r m" x="548" y="1504">元大</text><text class="r b" x="660" y="1504" text-anchor="end">0.39</text><text class="r b" x="784" y="1504" text-anchor="end">210</text><text class="r b" x="914" y="1504" text-anchor="end">2,414</text><text class="r" x="1065" y="1504" text-anchor="end">885,160</text>
<text class="r b" x="58" y="1544">80</text><text class="r b bl" x="136" y="1544">071931</text><text class="r b" x="252" y="1544">聯電統一66購02</text><text class="r m" x="548" y="1544">統一</text><text class="r b" x="660" y="1544" text-anchor="end">0.63</text><text class="r b" x="784" y="1544" text-anchor="end">276</text><text class="r b" x="914" y="1544" text-anchor="end">2,320</text><text class="r" x="1065" y="1544" text-anchor="end">1,452,340</text>
<rect x="50" y="1558" width="1128" height="40" rx="7" fill="#fafbfd"/><text class="r b" x="58" y="1584">81</text><text class="r b bl" x="136" y="1584">032944</text><text class="r b" x="252" y="1584">漢唐統一64購01</text><text class="r m" x="548" y="1584">統一</text><text class="r b" x="660" y="1584" text-anchor="end">0.18</text><text class="r b" x="784" y="1584" text-anchor="end">218</text><text class="r b" x="914" y="1584" text-anchor="end">2,320</text><text class="r" x="1065" y="1584" text-anchor="end">420,630</text>
<text class="r b" x="58" y="1624">90</text><text class="r b bl" x="136" y="1624">083301</text><text class="r b" x="252" y="1624">元油反國票63購01</text><text class="r m" x="548" y="1624">國票</text><text class="r b" x="660" y="1624" text-anchor="end">0.88</text><text class="r b" x="784" y="1624" text-anchor="end">197</text><text class="r b" x="914" y="1624" text-anchor="end">2,227</text><text class="r" x="1065" y="1624" text-anchor="end">1,911,260</text>
<rect x="50" y="1638" width="1128" height="40" rx="7" fill="#fafbfd"/><text class="r b" x="58" y="1664">91</text><text class="r b bl" x="136" y="1664">075402</text><text class="r b" x="252" y="1664">光罩統一67購01</text><text class="r m" x="548" y="1664">統一</text><text class="r b" x="660" y="1664" text-anchor="end">0.59</text><text class="r b" x="784" y="1664" text-anchor="end">303</text><text class="r b" x="914" y="1664" text-anchor="end">2,224</text><text class="r" x="1065" y="1664" text-anchor="end">1,336,980</text>
<text class="r b" x="58" y="1704">93</text><text class="r b bl" x="136" y="1704">083759</text><text class="r b" x="252" y="1704">國巨群益69購01</text><text class="r m" x="548" y="1704">群益</text><text class="r b" x="660" y="1704" text-anchor="end">0.59</text><text class="r b" x="784" y="1704" text-anchor="end">352</text><text class="r b" x="914" y="1704" text-anchor="end">2,218</text><text class="r" x="1065" y="1704" text-anchor="end">1,366,520</text>
<rect x="50" y="1718" width="1128" height="40" rx="7" fill="#fafbfd"/><text class="r b" x="58" y="1744">98</text><text class="r b bl" x="136" y="1744">081570</text><text class="r b" x="252" y="1744">臺股指凱基63購35</text><text class="r m" x="548" y="1744">凱基</text><text class="r b" x="660" y="1744" text-anchor="end">0.40</text><text class="r b" x="784" y="1744" text-anchor="end">186</text><text class="r b" x="914" y="1744" text-anchor="end">2,157</text><text class="r" x="1065" y="1744" text-anchor="end">842,800</text>
<rect x="34" y="1786" width="1172" height="154" rx="21" fill="#fff" stroke="#c8d8ea"/>
<rect x="34" y="1786" width="1172" height="58" rx="21" fill="#eef5fc" stroke="#c8d8ea"/>
<text class="h be" x="60" y="1825">TWSE 可驗證認售條件符合｜1 檔</text><text class="l be" x="1170" y="1824" text-anchor="end">非全市場正式候選</text>
<text class="th" x="58" y="1874">排名</text><text class="th" x="136" y="1874">代號</text><text class="th" x="252" y="1874">名稱</text><text class="th" x="548" y="1874">券商</text><text class="th" x="660" y="1874" text-anchor="end">收盤價</text><text class="th" x="784" y="1874" text-anchor="end">剩餘天數</text><text class="th" x="914" y="1874" text-anchor="end">成交量(張)</text><text class="th" x="1065" y="1874" text-anchor="end">成交金額</text>
<text class="r b" x="58" y="1916">7</text><text class="r b bl" x="136" y="1916">03733B</text><text class="r b" x="252" y="1916">臺股指凱基65熊07</text><text class="r m" x="548" y="1916">凱基</text><text class="r b" x="660" y="1916" text-anchor="end">1.01</text><text class="r b" x="784" y="1916" text-anchor="end">255</text><text class="r b" x="914" y="1916" text-anchor="end">6,175</text><text class="r" x="1065" y="1916" text-anchor="end">6,413,400</text>
<rect x="34" y="1964" width="1172" height="60" rx="16" fill="#fff" stroke="#d7dfe8"/>
<text class="r" x="58" y="1992" fill="#66768a">成交量排名僅使用權證本身成交量；price_snapshot_date = 2026-09-11；08:00 疑似券商介入：無法判斷。</text>
<text class="r b" x="1170" y="2014" text-anchor="end" fill="#8a98aa">TWSE verified only</text>
</svg>