<svg xmlns="http://www.w3.org/2000/svg" width="1200" height="1900" viewBox="0 0 1200 1900">
<style>
text{font-family:"Noto Sans TC","Microsoft JhengHei","PingFang TC",sans-serif;fill:#24384f}
.t{font-size:42px;font-weight:800;fill:white}.sub{font-size:20px;fill:#c7d4e5}
.h{font-size:25px;font-weight:800}.l{font-size:16px;font-weight:700;fill:#66768b}
.v{font-size:25px;font-weight:800}.th{font-size:16px;font-weight:700;fill:#5d6a7d}
.r{font-size:15px}.b{font-weight:700}.mut{fill:#6b788a}.blue{fill:#173b60}.bull{fill:#a34c1f}.bear{fill:#245b88}
</style>
<rect width="1200" height="1900" fill="#f4f6f9"/>
<rect x="32" y="28" width="1136" height="142" rx="26" fill="#10243e"/>
<text class="t" x="68" y="86">台股權證每日篩選 Heartbeat</text>
<text class="sub" x="68" y="128">研究用途｜不構成投資建議｜最近官方最後收盤價</text>
<text class="l" x="1130" y="88" text-anchor="end" fill="#90a8c6">WARRANTS RESEARCH</text>
<text class="l" x="1130" y="126" text-anchor="end" fill="white">2026-09-13</text>
<rect x="32" y="196" width="269" height="102" rx="16" fill="white" stroke="#d6dee8"/>
<text class="l" x="50" y="228">市場狀態</text>
<text class="v" x="50" y="266" fill="#b45e1c">週末</text>
<rect x="321" y="196" width="269" height="102" rx="16" fill="white" stroke="#d6dee8"/>
<text class="l" x="339" y="228">最近完整交易日</text>
<text class="v" x="339" y="266" fill="#10243e">2026-09-11</text>
<rect x="610" y="196" width="269" height="102" rx="16" fill="white" stroke="#d6dee8"/>
<text class="l" x="628" y="228">全市場認證</text>
<text class="v" x="628" y="266" fill="#19704a">是｜carry-forward</text>
<rect x="899" y="196" width="269" height="102" rx="16" fill="white" stroke="#d6dee8"/>
<text class="l" x="917" y="228">純權證母體</text>
<text class="v" x="917" y="266" fill="#10243e">44,213</text>
<text class="l" x="32" y="326">TWSE 34,032｜TPEx 10,181｜同一交易日已認證官方快照沿用；剩餘天數依 2026-09-13 重算</text>
<rect x="32" y="356" width="1136" height="146" rx="20" fill="white" stroke="#d6dee8"/>
<text class="h" x="58" y="394">篩選漏斗</text>
<rect x="58" y="412" width="232" height="66" rx="12" fill="#f7f9fc" stroke="#e0e6ee"/>
<text class="l" x="74" y="438">純權證 Top100</text><text class="h blue" x="74" y="466">100</text>
<text class="h" x="306" y="458" fill="#a2afbf">→</text>
<rect x="330" y="412" width="232" height="66" rx="12" fill="#f7f9fc" stroke="#e0e6ee"/>
<text class="l" x="346" y="438">收盤價 ≤ 1.5</text><text class="h blue" x="346" y="466">89</text>
<text class="h" x="578" y="458" fill="#a2afbf">→</text>
<rect x="602" y="412" width="232" height="66" rx="12" fill="#f7f9fc" stroke="#e0e6ee"/>
<text class="l" x="618" y="438">期限 &gt; 180 天</text><text class="h blue" x="618" y="466">28</text>
<text class="h" x="850" y="458" fill="#a2afbf">→</text>
<rect x="874" y="412" width="232" height="66" rx="12" fill="#f7f9fc" stroke="#e0e6ee"/>
<text class="l" x="890" y="438">正式候選</text><text class="h blue" x="890" y="466">認購 27｜認售 1</text>
<text class="l" x="58" y="494">Top100 結構：認購 90｜認售 10　成交量範圍：14,834～2,514 張</text>
<rect x="32" y="530" width="1136" height="1068" rx="20" fill="white" stroke="#e9d7c8"/>
<rect x="32" y="530" width="1136" height="64" rx="20" fill="#fff2e8" stroke="#e9d7c8"/>
<text class="h bull" x="58" y="572">看多認購｜正式候選前 25 檔</text><text class="l bull" x="1140" y="570" text-anchor="end">正式認購共 27 檔</text>
<text class="th" x="56" y="622">排名</text><text class="th" x="132" y="622">代號</text><text class="th" x="246" y="622">名稱</text><text class="th" x="548" y="622">券商</text><text class="th" x="668" y="622" text-anchor="end">收盤價</text><text class="th" x="786" y="622" text-anchor="end">剩餘天數</text><text class="th" x="918" y="622" text-anchor="end">成交量(張)</text>
<line x1="54" y1="634" x2="1140" y2="634" stroke="#d9e1ea"/>
<text class="r b" x="56" y="664">6</text><text class="r b blue" x="132" y="664">712386</text><text class="r b" x="246" y="664">頎邦統一66購02</text><text class="r mut" x="548" y="664">統一</text><text class="r b" x="668" y="664" text-anchor="end">0.93</text><text class="r b" x="786" y="664" text-anchor="end">270</text><text class="r b" x="918" y="664" text-anchor="end">6,645</text>
<rect x="48" y="677" width="1096" height="37" rx="7" fill="#fafbfd"/><text class="r b" x="56" y="701">7</text><text class="r b blue" x="132" y="701">714112</text><text class="r b" x="246" y="701">光頡統一79購01</text><text class="r mut" x="548" y="701">統一</text><text class="r b" x="668" y="701" text-anchor="end">0.88</text><text class="r b" x="786" y="701" text-anchor="end">729</text><text class="r b" x="918" y="701" text-anchor="end">6,512</text>
<text class="r b" x="56" y="738">12</text><text class="r b blue" x="132" y="738">083649</text><text class="r b" x="246" y="738">玉晶光統一71購01</text><text class="r mut" x="548" y="738">統一</text><text class="r b" x="668" y="738" text-anchor="end">0.69</text><text class="r b" x="786" y="738" text-anchor="end">477</text><text class="r b" x="918" y="738" text-anchor="end">5,574</text>
<rect x="48" y="751" width="1096" height="37" rx="7" fill="#fafbfd"/><text class="r b" x="56" y="775">13</text><text class="r b blue" x="132" y="775">067411</text><text class="r b" x="246" y="775">國巨中信65購01</text><text class="r mut" x="548" y="775">中信</text><text class="r b" x="668" y="775" text-anchor="end">0.56</text><text class="r b" x="786" y="775" text-anchor="end">247</text><text class="r b" x="918" y="775" text-anchor="end">5,104</text>
<text class="r b" x="56" y="812">16</text><text class="r b blue" x="132" y="812">04020C</text><text class="r b" x="246" y="812">元債2X富邦65牛01</text><text class="r mut" x="548" y="812">富邦</text><text class="r b" x="668" y="812" text-anchor="end">0.81</text><text class="r b" x="786" y="812" text-anchor="end">249</text><text class="r b" x="918" y="812" text-anchor="end">4,825</text>
<rect x="48" y="825" width="1096" height="37" rx="7" fill="#fafbfd"/><text class="r b" x="56" y="849">22</text><text class="r b blue" x="132" y="849">077819</text><text class="r b" x="246" y="849">愛普統一6C購01</text><text class="r mut" x="548" y="849">統一</text><text class="r b" x="668" y="849" text-anchor="end">0.58</text><text class="r b" x="786" y="849" text-anchor="end">471</text><text class="r b" x="918" y="849" text-anchor="end">4,552</text>
<text class="r b" x="56" y="886">26</text><text class="r b blue" x="132" y="886">066186</text><text class="r b" x="246" y="886">聯發科元大64購06</text><text class="r mut" x="548" y="886">元大</text><text class="r b" x="668" y="886" text-anchor="end">1.45</text><text class="r b" x="786" y="886" text-anchor="end">206</text><text class="r b" x="918" y="886" text-anchor="end">4,275</text>
<rect x="48" y="899" width="1096" height="37" rx="7" fill="#fafbfd"/><text class="r b" x="56" y="923">29</text><text class="r b blue" x="132" y="923">708913</text><text class="r b" x="246" y="923">光頡統一65購01</text><text class="r mut" x="548" y="923">統一</text><text class="r b" x="668" y="923" text-anchor="end">1.50</text><text class="r b" x="786" y="923" text-anchor="end">249</text><text class="r b" x="918" y="923" text-anchor="end">4,058</text>
<text class="r b" x="56" y="960">32</text><text class="r b blue" x="132" y="960">712261</text><text class="r b" x="246" y="960">金山電統一6C購01</text><text class="r mut" x="548" y="960">統一</text><text class="r b" x="668" y="960" text-anchor="end">0.69</text><text class="r b" x="786" y="960" text-anchor="end">449</text><text class="r b" x="918" y="960" text-anchor="end">3,915</text>
<rect x="48" y="973" width="1096" height="37" rx="7" fill="#fafbfd"/><text class="r b" x="56" y="997">37</text><text class="r b blue" x="132" y="997">082193</text><text class="r b" x="246" y="997">台積電群益68購04</text><text class="r mut" x="548" y="997">群益</text><text class="r b" x="668" y="997" text-anchor="end">1.23</text><text class="r b" x="786" y="997" text-anchor="end">345</text><text class="r b" x="918" y="997" text-anchor="end">3,701</text>
<text class="r b" x="56" y="1034">39</text><text class="r b blue" x="132" y="1034">060819</text><text class="r b" x="246" y="1034">元油反群益63購03</text><text class="r mut" x="548" y="1034">群益</text><text class="r b" x="668" y="1034" text-anchor="end">0.17</text><text class="r b" x="786" y="1034" text-anchor="end">190</text><text class="r b" x="918" y="1034" text-anchor="end">3,635</text>
<rect x="48" y="1047" width="1096" height="37" rx="7" fill="#fafbfd"/><text class="r b" x="56" y="1071">48</text><text class="r b blue" x="132" y="1071">071950</text><text class="r b" x="246" y="1071">玉晶光統一66購02</text><text class="r mut" x="548" y="1071">統一</text><text class="r b" x="668" y="1071" text-anchor="end">1.43</text><text class="r b" x="786" y="1071" text-anchor="end">277</text><text class="r b" x="918" y="1071" text-anchor="end">3,416</text>
<text class="r b" x="56" y="1108">49</text><text class="r b blue" x="132" y="1108">710744</text><text class="r b" x="246" y="1108">盈正國票65購01</text><text class="r mut" x="548" y="1108">國票</text><text class="r b" x="668" y="1108" text-anchor="end">0.52</text><text class="r b" x="786" y="1108" text-anchor="end">235</text><text class="r b" x="918" y="1108" text-anchor="end">3,385</text>
<rect x="48" y="1121" width="1096" height="37" rx="7" fill="#fafbfd"/><text class="r b" x="56" y="1145">52</text><text class="r b blue" x="132" y="1145">711192</text><text class="r b" x="246" y="1145">亞通統一67購01</text><text class="r mut" x="548" y="1145">統一</text><text class="r b" x="668" y="1145" text-anchor="end">0.88</text><text class="r b" x="786" y="1145" text-anchor="end">304</text><text class="r b" x="918" y="1145" text-anchor="end">3,275</text>
<text class="r b" x="56" y="1182">53</text><text class="r b blue" x="132" y="1182">059761</text><text class="r b" x="246" y="1182">世芯群益63購01</text><text class="r mut" x="548" y="1182">群益</text><text class="r b" x="668" y="1182" text-anchor="end">0.95</text><text class="r b" x="786" y="1182" text-anchor="end">183</text><text class="r b" x="918" y="1182" text-anchor="end">3,270</text>
<rect x="48" y="1195" width="1096" height="37" rx="7" fill="#fafbfd"/><text class="r b" x="56" y="1219">65</text><text class="r b blue" x="132" y="1219">061945</text><text class="r b" x="246" y="1219">台達電中信63購02</text><text class="r mut" x="548" y="1219">中信</text><text class="r b" x="668" y="1219" text-anchor="end">0.32</text><text class="r b" x="786" y="1219" text-anchor="end">199</text><text class="r b" x="918" y="1219" text-anchor="end">3,101</text>
<text class="r b" x="56" y="1256">66</text><text class="r b blue" x="132" y="1256">081315</text><text class="r b" x="246" y="1256">大立光富邦65購05</text><text class="r mut" x="548" y="1256">富邦</text><text class="r b" x="668" y="1256" text-anchor="end">1.27</text><text class="r b" x="786" y="1256" text-anchor="end">248</text><text class="r b" x="918" y="1256" text-anchor="end">3,051</text>
<rect x="48" y="1269" width="1096" height="37" rx="7" fill="#fafbfd"/><text class="r b" x="56" y="1293">71</text><text class="r b blue" x="132" y="1293">061946</text><text class="r b" x="246" y="1293">台達電中信63購03</text><text class="r mut" x="548" y="1293">中信</text><text class="r b" x="668" y="1293" text-anchor="end">0.37</text><text class="r b" x="786" y="1293" text-anchor="end">199</text><text class="r b" x="918" y="1293" text-anchor="end">2,949</text>
<text class="r b" x="56" y="1330">72</text><text class="r b blue" x="132" y="1330">065948</text><text class="r b" x="246" y="1330">世芯元大64購06</text><text class="r mut" x="548" y="1330">元大</text><text class="r b" x="668" y="1330" text-anchor="end">0.80</text><text class="r b" x="786" y="1330" text-anchor="end">206</text><text class="r b" x="918" y="1330" text-anchor="end">2,948</text>
<rect x="48" y="1343" width="1096" height="37" rx="7" fill="#fafbfd"/><text class="r b" x="56" y="1367">74</text><text class="r b blue" x="132" y="1367">710586</text><text class="r b" x="246" y="1367">富喬元大64購03</text><text class="r mut" x="548" y="1367">元大</text><text class="r b" x="668" y="1367" text-anchor="end">0.95</text><text class="r b" x="786" y="1367" text-anchor="end">201</text><text class="r b" x="918" y="1367" text-anchor="end">2,901</text>
<text class="r b" x="56" y="1404">76</text><text class="r b blue" x="132" y="1404">733461</text><text class="r b" x="246" y="1404">先進光統一65購01</text><text class="r mut" x="548" y="1404">統一</text><text class="r b" x="668" y="1404" text-anchor="end">0.49</text><text class="r b" x="786" y="1404" text-anchor="end">247</text><text class="r b" x="918" y="1404" text-anchor="end">2,876</text>
<rect x="48" y="1417" width="1096" height="37" rx="7" fill="#fafbfd"/><text class="r b" x="56" y="1441">80</text><text class="r b blue" x="132" y="1441">733696</text><text class="r b" x="246" y="1441">高端統一65購01</text><text class="r mut" x="548" y="1441">統一</text><text class="r b" x="668" y="1441" text-anchor="end">0.65</text><text class="r b" x="786" y="1441" text-anchor="end">253</text><text class="r b" x="918" y="1441" text-anchor="end">2,818</text>
<text class="r b" x="56" y="1478">83</text><text class="r b blue" x="132" y="1478">710198</text><text class="r b" x="246" y="1478">信紘科永豐64購01</text><text class="r mut" x="548" y="1478">永豐</text><text class="r b" x="668" y="1478" text-anchor="end">0.35</text><text class="r b" x="786" y="1478" text-anchor="end">222</text><text class="r b" x="918" y="1478" text-anchor="end">2,749</text>
<rect x="48" y="1491" width="1096" height="37" rx="7" fill="#fafbfd"/><text class="r b" x="56" y="1515">85</text><text class="r b blue" x="132" y="1515">085218</text><text class="r b" x="246" y="1515">天二統一6B購01</text><text class="r mut" x="548" y="1515">統一</text><text class="r b" x="668" y="1515" text-anchor="end">0.70</text><text class="r b" x="786" y="1515" text-anchor="end">421</text><text class="r b" x="918" y="1515" text-anchor="end">2,741</text>
<text class="r b" x="56" y="1552">88</text><text class="r b blue" x="132" y="1552">084029</text><text class="r b" x="246" y="1552">玉晶光元大66購03</text><text class="r mut" x="548" y="1552">元大</text><text class="r b" x="668" y="1552" text-anchor="end">0.86</text><text class="r b" x="786" y="1552" text-anchor="end">262</text><text class="r b" x="918" y="1552" text-anchor="end">2,714</text>
<rect x="32" y="1620" width="1136" height="150" rx="20" fill="white" stroke="#c7d8eb"/><rect x="32" y="1620" width="1136" height="58" rx="20" fill="#eef5fc" stroke="#c7d8eb"/>
<text class="h bear" x="58" y="1659">看空認售｜正式候選</text><text class="l bear" x="1140" y="1658" text-anchor="end">正式認售共 1 檔</text>
<text class="th" x="56" y="1707">排名</text><text class="th" x="132" y="1707">代號</text><text class="th" x="246" y="1707">名稱</text><text class="th" x="548" y="1707">券商</text><text class="th" x="668" y="1707" text-anchor="end">收盤價</text><text class="th" x="786" y="1707" text-anchor="end">剩餘天數</text><text class="th" x="918" y="1707" text-anchor="end">成交量(張)</text>
<text class="r b" x="56" y="1748">9</text><text class="r b blue" x="132" y="1748">03733B</text><text class="r b" x="246" y="1748">臺股指凱基65熊07</text><text class="r mut" x="548" y="1748">凱基</text><text class="r b" x="668" y="1748" text-anchor="end">1.01</text><text class="r b" x="786" y="1748" text-anchor="end">256</text><text class="r b" x="918" y="1748" text-anchor="end">6,175</text>
<rect x="32" y="1800" width="1136" height="76" rx="18" fill="white" stroke="#d6dee8"/>
<text class="l" x="58" y="1830">成交量排名只使用權證本身成交量；不含標的股票、ETF、ETN 或其他商品。</text>
<text class="l" x="58" y="1857">週末無新交易：價格快照維持 2026-09-11；期限以 2026-09-13 日曆日重新計算。</text>
</svg>